<?xml version="1.0" ?><svg id="Layer_1" style="enable-background:new 0 0 512 512;" version="1.1" viewBox="0 0 512 512" xml:space="preserve" xmlns="http://www.w3.org/2000/svg" xmlns:xlink="http://www.w3.org/1999/xlink"><style type="text/css">
	.st0{fill:#D7F3F7;stroke:#231F20;stroke-width:10;stroke-miterlimit:10;}
	.st1{opacity:0.61;fill:#C0DFE2;}
	.st2{fill:#F9F96E;stroke:#231F20;stroke-width:10;stroke-miterlimit:10;}
	.st3{fill:#F9F96E;stroke:#231F20;stroke-width:10;stroke-linecap:round;stroke-linejoin:round;stroke-miterlimit:10;}
</style><g id="XMLID_198_"><rect class="st0" height="247.1" id="XMLID_201_" width="402.7" x="52.8" y="57.8"/><polyline class="st1" id="XMLID_483_" points="450.3,57.8 450.3,300.9 54.8,300.9  "/><path class="st2" d="M482.9,57.8h-450c-12.8,0-23.1-10.3-23.1-23.1v0c0-12.8,10.3-23.1,23.1-23.1h450   c12.8,0,23.1,10.3,23.1,23.1v0C506,47.5,495.7,57.8,482.9,57.8z" id="XMLID_202_"/><path class="st2" d="M479.1,347.1h-450C16.3,347.1,6,336.8,6,324v0c0-12.8,10.3-23.1,23.1-23.1h450   c12.8,0,23.1,10.3,23.1,23.1v0C502.2,336.8,491.8,347.1,479.1,347.1z" id="XMLID_203_"/><path class="st2" d="M264.8,351.3c0.2,3,0,105.1,0,105.1" id="XMLID_204_"/><path class="st2" d="M264.8,500.4L264.8,500.4c-13.6,0-24.6-11-24.6-24.6v0c0-13.6,11-24.6,24.6-24.6h0   c13.6,0,24.6,11,24.6,24.6v0C289.4,489.3,278.4,500.4,264.8,500.4z" id="XMLID_205_"/><line class="st3" id="XMLID_206_" x1="146.3" x2="371" y1="126.3" y2="126.3"/><line class="st3" id="XMLID_207_" x1="146.3" x2="371" y1="177.6" y2="177.6"/><line class="st3" id="XMLID_208_" x1="146.3" x2="371" y1="234.7" y2="234.7"/></g></svg>